<svg width="44" height="44" viewBox="0 0 44 44" fill="none" xmlns="http://www.w3.org/2000/svg">
<path d="M22.22 44C19.14 44 16.2525 43.4133 13.5575 42.24C10.8625 41.0667 8.51583 39.4808 6.5175 37.4825C4.51917 35.4842 2.93333 33.1375 1.76 30.4425C0.586667 27.7475 0 24.86 0 21.78C0 16.4267 1.705 11.7058 5.115 7.6175C8.525 3.52917 12.87 0.99 18.15 0C17.49 3.63 17.6917 7.1775 18.755 10.6425C19.8183 14.1075 21.6517 17.1417 24.255 19.745C26.8583 22.3483 29.8925 24.1817 33.3575 25.245C36.8225 26.3083 40.37 26.51 44 25.85C43.0467 31.13 40.5167 35.475 36.41 38.885C32.3033 42.295 27.5733 44 22.22 44Z" fill="#39281D"/>
</svg>
