<svg width="44" height="44" viewBox="0 0 44 44" fill="none" xmlns="http://www.w3.org/2000/svg">
<path id="eco" d="M21.2992 43.9532C19.8793 43.9532 18.4486 43.7918 17.0071 43.4691C15.5657 43.1464 14.0919 42.6838 12.5859 42.0814C13.1023 36.8749 14.6083 32.0127 17.1039 27.4947C19.5996 22.9766 22.8053 18.9965 26.7209 15.5542C21.9877 17.9638 17.8892 21.1479 14.4254 25.1066C10.9616 29.0652 8.54121 33.5832 7.16429 38.6606C6.99218 38.5315 6.83082 38.3917 6.68022 38.2411L6.19614 37.757C4.17379 35.7347 2.63551 33.4757 1.58131 30.98C0.527102 28.4843 0 25.8811 0 23.1703C0 20.2443 0.580888 17.4474 1.74267 14.7797C2.90444 12.1119 4.51802 9.74529 6.5834 7.67991C10.0687 4.19458 14.5868 1.92481 20.1375 0.870608C25.6882 -0.183598 33.4764 -0.280412 43.5021 0.580163C44.2766 10.864 44.1475 18.706 43.1148 24.1061C42.0821 29.5063 39.8446 33.9275 36.4023 37.3698C34.2939 39.4782 31.9381 41.1025 29.3349 42.2428C26.7316 43.383 24.0531 43.9532 21.2992 43.9532Z" fill="#FAF0E6"/>
</svg>
