<?xml version="1.0" encoding="UTF-8"?>
<svg xmlns="http://www.w3.org/2000/svg" width="89" height="90" viewBox="0 0 89 90" fill="none">
  <path d="M86.3682 27.3466C81.5106 26.1951 79.3718 24.8243 79.0166 23.9981C77.4574 20.3755 74.0322 20.1068 70.6223 18.8113C69.4117 18.3517 68.7125 17.6446 68.5998 16.7684C68.4598 15.6755 67.6503 14.8008 66.585 14.5905L64.4564 14.1702C63.0183 13.4287 62.7839 12.4058 62.5019 10.7013C62.2144 8.96488 61.8206 6.58526 58.7586 5.57895C56.4246 4.81156 55.7161 3.51122 55.5324 2.55669C55.3098 1.39428 54.3288 0.51141 53.1454 0.411635C50.7829 0.210306 49.0922 0.61881 47.9778 1.65964C45.9593 3.54586 46.7018 6.62183 46.4915 8.21793C46.3225 9.4986 43.7348 9.95315 42.9891 10.0094C42.1735 10.0183 36.862 10.1996 34.775 13.5373C33.7396 15.1936 30.4708 13.9404 29.2149 13.1227C29.1572 12.9137 29.2908 12.2338 29.703 11.6628C30.0169 11.2279 30.2069 10.7272 30.2672 10.176C30.4305 8.70185 29.2263 7.42637 27.7388 7.4897L23.7932 7.65642C21.9266 7.73418 20.8138 9.81894 21.8398 11.413C22.4205 12.3147 22.6856 13.2984 22.6286 14.3308C22.5356 15.9999 22.8785 17.2169 23.1287 18.1065C23.4593 19.2764 23.4528 19.409 23.0511 19.8568C22.794 20.1434 21.5821 19.5608 20.7799 19.1766C19.5132 18.5694 18.2031 17.9399 16.8995 18.2397C16.5374 18.3244 16.4728 18.3399 15.8909 17.0921C15.2736 15.7678 14.5988 14.2339 12.0848 13.9967C11.0769 13.9007 10.1037 14.2363 9.42079 14.9107C9.32318 14.9637 8.69971 14.9718 7.44973 14.0444C5.52047 12.6145 3.12317 12.367 1.74826 13.4594C0.795775 14.2145 0.531724 15.4456 1.05847 16.6706C1.64402 18.036 0.354705 18.7049 0.693948 20.8696C1.06399 23.2301 3.86138 26.0312 8.50942 26.8039C8.6884 26.8334 8.83968 26.8803 9.0033 26.9211C9.40446 27.1959 9.85187 27.3427 10.3427 27.3727C11.7798 28.0693 12.3433 29.0817 12.4899 29.4008C12.7614 31.3014 13.386 32.0942 14.4433 33.2738C14.5437 33.5555 14.4653 34.4635 14.4077 35.1302C14.2775 36.6358 14.1158 38.5066 14.758 40.3715C15.1544 41.5268 15.793 42.3979 16.4567 43.1617C16.4974 43.2341 16.5203 43.3141 16.5765 43.3777C16.5922 43.3946 18.1166 45.219 18.7065 48.5799C18.7089 48.5941 18.7229 48.6028 18.7254 48.6171C18.9103 49.8278 19.3037 51.0574 19.6876 52.2464C19.9721 53.1283 20.4172 54.5079 20.4461 55.1916C20.2558 54.9834 19.9811 54.6062 19.6632 53.9659C19.305 53.2447 18.5564 52.8179 17.7553 52.8829C16.9566 52.9484 16.2864 53.4855 16.0471 54.2528C14.6634 58.708 15.2138 60.1983 15.1636 60.5422C14.6573 61.0087 12.3066 61.468 11.7655 64.9679C11.4437 67.0526 10.2432 68.7683 9.29328 69.839C8.29582 70.9646 8.32524 72.6441 9.36112 73.7465C11.179 75.6873 12.4396 79.415 14.861 81.4585C16.5698 82.9032 18.5947 83.2644 20.877 82.5349C24.3294 81.4313 25.081 82.1349 26.2177 83.2015C26.9675 83.9075 27.9019 84.7838 29.5118 85.2028C30.723 85.52 31.9 86.4521 33.0375 87.358C34.9525 88.8769 37.1265 90.6038 39.6504 89.1548C41.3588 88.1722 42.3376 86.3379 42.4816 83.8499C42.4921 83.6675 42.6253 83.5238 42.8133 83.494C43.9596 83.3075 45.3163 82.6354 46.9628 81.4424C48.8075 80.1047 49.5459 80.5465 50.8858 81.3467C52.0615 82.0501 53.526 82.9228 55.6863 82.3865C57.2988 81.9855 57.567 82.303 58.5657 83.488C59.2257 84.2734 60.0465 85.2474 61.4583 86.1287C64.7256 88.166 68.8719 87.0826 70.1617 86.3579C70.2398 86.3143 72.104 85.2627 73.9699 83.8905C76.8702 81.7602 78.1538 80.0518 78.0093 78.5169C77.9499 77.8915 77.5835 76.7506 75.7924 76.1541C74.8987 75.8549 74.341 75.4238 74.087 74.8354C73.6098 73.731 74.2181 72.18 74.5024 71.5667C74.8744 70.7613 74.7981 69.8004 74.3037 69.0582C74.057 68.6885 73.4792 67.8216 75.5394 66.4175C76.7989 65.5615 77.053 63.8067 76.0786 62.635C75.6264 62.0909 75.5577 61.5561 75.855 60.9001C76.5121 59.4506 76.6549 57.5425 76.2773 55.2337C75.9781 53.3972 73.8857 52.4852 72.3298 53.5051C70.3313 54.8184 69.0784 54.6261 70.3913 52.9386C71.0504 52.0894 72.1053 51.1675 73.1254 50.2754C74.6988 48.8979 75.9411 47.8101 76.2845 46.642C76.8236 44.8043 77.7901 43.7927 78.2518 43.7972L78.3802 43.7976C79.6978 43.8149 83.1982 43.8589 83.9841 39.0455C83.9976 38.9641 83.9768 38.8904 83.9753 38.8147C84.4156 35.6657 85.9561 33.8938 85.994 33.8514C86.0102 33.8356 86.0151 33.811 86.0313 33.7918C86.0595 33.7554 86.0981 33.7355 86.1237 33.6959C86.6091 32.9463 87.1647 32.1772 87.7724 31.4157C88.9419 29.9532 88.1894 27.7705 86.3705 27.3418" fill="#FFF295"></path>
</svg>
