<?xml version="1.0" encoding="UTF-8"?>
<svg xmlns="http://www.w3.org/2000/svg" width="47" height="75" viewBox="0 0 47 75" fill="none">
  <path d="M12.209 28.8181C14.0969 26.4826 15.964 24.6018 17.8519 23.1963C21.3787 20.158 24.4284 18.9799 24.4284 18.9799C24.4284 18.9799 22.7895 21.5635 20.1962 25.3045C19.7191 26.2346 19.0137 27.1853 18.3083 28.3427C17.603 29.2728 17.1258 30.4509 16.4204 31.629C15.7151 32.8071 15.2379 33.9646 14.5325 35.1427C14.0554 36.3208 13.1218 37.7262 12.6446 38.9043C12.1675 40.0824 11.4622 41.4879 11.0057 42.6453C10.7775 43.1207 10.5286 43.8234 10.3004 44.2781C18.0594 48.7218 28.4116 47.7918 34.7599 40.9919C46.5229 28.3428 36.1706 22.9483 47 0.667684C47 0.667684 22.9969 -4.25139 5.81925 12.6141C-1.93975 20.3441 -1.93975 32.7658 5.81925 40.7438C6.29641 39.3384 6.75278 37.9329 7.45814 36.5275C8.64066 33.7166 10.2796 30.9056 12.1675 28.7974" fill="white"></path>
  <path d="M23.2378 61.105C24.4444 60.4073 25.577 59.8992 26.6521 59.5958C28.7188 58.854 30.3011 58.8268 30.3011 58.8268C30.3011 58.8268 29.175 59.6681 27.4424 60.8523C27.0894 61.1726 26.6276 61.4664 26.1365 61.8478C25.6776 62.1328 25.2895 62.5583 24.7956 62.9484C24.3016 63.3386 23.9164 63.7553 23.4225 64.1454C23.0344 64.5709 22.4024 65.0221 22.0143 65.4476C21.6263 65.873 21.1002 66.3596 20.7247 66.7795C20.5516 66.9456 20.3367 67.205 20.1665 67.3624C23.1402 70.4471 28.0775 71.6556 31.9857 69.7562C39.2344 66.2159 35.1912 62.3267 43.3679 54.5594C43.3679 54.5594 32.9204 48.7583 22.5621 53.2475C17.8675 55.3227 16.1116 60.5878 18.5858 65.1706C19.006 64.6487 19.4165 64.1237 19.9426 63.6372C20.8889 62.6288 22.0471 61.6911 23.2215 61.0898" fill="white"></path>
</svg>
