<?xml version="1.0" encoding="UTF-8"?>
<svg xmlns="http://www.w3.org/2000/svg" width="58" height="74" viewBox="0 0 58 74" fill="none">
  <path d="M51.55 41.85C49.62 41.19 47.86 40.86 46.29 40.89C44.71 40.92 43.11 41.19 41.5 41.71C39.88 42.23 38.53 42.8 37.44 43.42C36.35 44.05 35.3 44.76 34.28 45.56C33.26 46.36 32.59 46.92 32.26 47.23C31.93 47.54 31.69 47.79 31.53 47.99C32.89 44.29 33.88 40.44 34.51 36.45L35.2 36.57C35.66 36.65 36.29 36.71 37.1 36.75C37.9 36.79 38.82 36.8 39.85 36.79C40.88 36.78 41.97 36.65 43.11 36.4C44.25 36.16 45.4 35.83 46.56 35.42C47.72 35.01 48.82 34.39 49.88 33.56C50.94 32.73 51.89 31.76 52.72 30.64C53.55 29.53 54.23 28.1 54.76 26.38C55.29 24.65 55.59 22.73 55.64 20.61C53.79 19.99 51.99 19.66 50.24 19.63C48.49 19.6 46.96 19.8 45.67 20.22C44.38 20.64 43.13 21.25 41.94 22.04C40.75 22.83 39.78 23.58 39.04 24.3C38.31 25.02 37.62 25.81 36.98 26.67C36.34 27.53 35.93 28.11 35.74 28.42C35.55 28.73 35.41 28.98 35.33 29.17C35.36 28.46 35.37 27.49 35.37 26.25C35.37 25.01 35.36 24.33 35.33 24.19L35.62 23.58C35.84 23.17 36.07 22.6 36.31 21.87C36.55 21.13 36.81 20.29 37.09 19.34C37.37 18.39 37.54 17.35 37.62 16.22C37.7 15.09 37.71 13.93 37.64 12.73C37.57 11.53 37.29 10.32 36.8 9.10001C36.31 7.88001 35.66 6.72001 34.84 5.63C34.02 4.54 32.88 3.50001 31.39 2.51001C29.91 1.52001 28.17 0.68 26.19 0C24.8 1.85 23.85 3.72999 23.34 5.64999C22.82 7.56999 22.66 9.29002 22.85 10.83C23.04 12.37 23.49 13.9 24.2 15.42C24.91 16.94 25.64 18.21 26.4 19.21C27.16 20.22 28.02 21.19 28.99 22.13C29.96 23.07 30.62 23.67 30.99 23.95C31.36 24.22 31.65 24.44 31.87 24.6C31.87 26.58 31.71 29.24 31.38 32.55L31.22 31.9C31.08 31.49 30.87 30.95 30.57 30.29C30.27 29.62 29.9 28.86 29.45 28.01C29 27.15 28.43 26.3 27.74 25.44C27.05 24.58 26.29 23.75 25.46 22.95C24.63 22.15 23.63 21.47 22.46 20.91C21.29 20.35 20.04 19.95 18.71 19.69C17.38 19.43 15.85 19.42 14.12 19.65C12.39 19.88 10.58 20.38 8.66998 21.14C8.82998 23.04 9.22002 24.78 9.83002 26.34C10.44 27.9 11.18 29.19 12.05 30.2C12.92 31.21 13.94 32.09 15.11 32.85C16.28 33.61 17.42 34.19 18.54 34.58C19.65 34.97 20.86 35.29 22.15 35.52C23.44 35.75 24.55 35.89 25.48 35.93C26.4 35.97 27.35 35.98 28.31 35.95C29.27 35.92 29.91 35.89 30.21 35.85C30.51 35.81 30.75 35.77 30.94 35.75C30.23 40.1 29.16 44.06 27.72 47.62C27.04 46.42 26.27 45.31 25.42 44.27C24.56 43.24 23.36 42.19 21.81 41.13C20.26 40.07 18.57 39.3 16.73 38.83C14.89 38.35 12.62 38.25 9.90002 38.52C7.18002 38.79 4.26998 39.57 1.16998 40.85C2.06998 43.11 3.08002 45.09 4.21002 46.81C5.34002 48.52 6.49003 49.88 7.66003 50.89C8.83003 51.9 10.08 52.7 11.41 53.3C12.74 53.9 14.01 54.28 15.2 54.46C16.4 54.64 17.63 54.67 18.91 54.56C20.19 54.45 21.32 54.27 22.3 54.03C23.28 53.79 24.26 53.47 25.24 53.09C22.47 58.2 19.05 62.21 14.98 65.1C10.91 68 6.53002 69.46 1.83002 69.49C1.31002 69.49 0.880029 69.66 0.530029 70C0.180029 70.34 0 70.77 0 71.29C0 71.81 0.180029 72.24 0.530029 72.59C0.880029 72.94 1.32002 73.12 1.83002 73.12C7.48002 73.09 12.71 71.29 17.51 67.72C22.31 64.14 26.24 59.26 29.32 53.06L30.01 53.47C30.45 53.74 31.07 54.05 31.89 54.39C32.71 54.73 33.65 55.1 34.72 55.51C35.8 55.92 36.97 56.22 38.25 56.41C39.53 56.6 40.84 56.72 42.19 56.76C43.54 56.8 44.92 56.6 46.33 56.17C47.74 55.74 49.09 55.1 50.37 54.27C51.65 53.44 52.89 52.24 54.08 50.66C55.28 49.08 56.31 47.21 57.18 45.03C55.38 43.59 53.52 42.54 51.59 41.87" fill="#F1874F"></path>
</svg>
