<svg width="837" height="544" viewBox="0 0 837 544" fill="none" xmlns="http://www.w3.org/2000/svg">
<path d="M51.075 431C43.575 431 37.425 428.45 32.625 423.35L43.425 484.55L8.55 489.95L7.2 412.1C6.9 399.5 9.975 388.1 16.425 377.9L32.85 351.125L20.925 345.95L40.95 304.55L79.2 325.025C86.25 328.925 91.425 333.65 94.725 339.2C98.175 344.75 99.9 351.575 99.9 359.675V405.125C99.9 412.475 97.425 418.625 92.475 423.575C87.675 428.525 81.525 431 74.025 431H51.075ZM82.35 383.75V371.825L49.275 357.875L36.45 383.75H82.35ZM135.367 431.675C129.667 432.125 124.342 431.15 119.392 428.75C114.442 426.2 110.467 422.675 107.467 418.175C104.617 413.675 103.192 408.725 103.192 403.325C103.192 400.925 103.342 399.125 103.642 397.925L114.217 341.9C115.567 335 118.567 329.6 123.217 325.7C127.867 321.65 133.342 319.625 139.642 319.625C143.692 319.625 147.517 320.375 151.117 321.875L171.817 330.425C177.667 332.975 182.242 336.725 185.542 341.675C188.992 346.625 190.717 352.325 190.717 358.775V383.75H208.942L211.192 386V428.75L208.942 431H190.717V435.95C190.717 443.45 188.692 450.35 184.642 456.65C180.592 462.95 175.192 467.675 168.442 470.825L119.167 493.325L104.767 447.425L173.392 432.8V428.75L135.367 431.675ZM173.167 383.75V372.05L131.092 362.825L127.042 383.75H173.167ZM251.692 431C247.192 431 242.992 429.875 239.092 427.625C235.192 425.375 232.117 422.375 229.867 418.625C227.617 422.525 224.542 425.6 220.642 427.85C216.742 429.95 212.542 431 208.042 431H196.567L194.317 428.75V386L196.567 383.75H220.192L236.842 346.175L251.917 353.375L242.017 383.75H274.417L289.042 350.225L304.792 357.875L296.242 383.75H335.167L326.617 339.875L357.442 332V383.75H376.567L378.817 386V428.75L376.567 431H374.767C368.767 431 363.142 429.725 357.892 427.175C352.792 424.625 348.592 421.1 345.292 416.6C343.192 420.95 340.042 424.475 335.842 427.175C331.792 429.725 327.292 431 322.342 431H310.417C304.867 431 299.842 429.425 295.342 426.275C290.992 423.125 287.917 419 286.117 413.9C284.317 419 281.167 423.125 276.667 426.275C272.317 429.425 267.517 431 262.267 431H251.692ZM438.398 431C432.098 431 426.248 429.65 420.848 426.95C415.598 424.25 411.323 420.425 408.023 415.475C404.873 420.425 400.598 424.25 395.198 426.95C389.948 429.65 384.098 431 377.648 431H365.273L363.023 428.75V386L365.273 383.75H398.798L390.248 339.875L421.073 332V383.75H440.198L442.448 386V428.75L440.198 431H438.398ZM381.473 465.875H367.523V440H417.473V465.875H403.748V484.325H381.473V465.875ZM428.95 431L426.7 428.75V386L428.95 383.75H462.25L452.35 333.125L484.3 325.025V394.325C484.3 401.225 482.725 407.525 479.575 413.225C476.425 418.775 472 423.125 466.3 426.275C460.75 429.425 454.525 431 447.625 431H428.95ZM428.95 440H478.9V466.1H428.95V440ZM486.633 287.675L523.083 279.125V427.175L499.233 435.5L486.633 287.675ZM579.869 431C572.369 431 566.219 428.45 561.419 423.35L572.219 484.55L537.344 489.95L535.994 412.1C535.694 399.5 538.769 388.1 545.219 377.9L561.644 351.125L549.719 345.95L569.744 304.55L607.994 325.025C615.044 328.925 620.219 333.65 623.519 339.2C626.969 344.75 628.694 351.575 628.694 359.675V405.125C628.694 412.475 626.219 418.625 621.269 423.575C616.469 428.525 610.319 431 602.819 431H579.869ZM611.144 383.75V371.825L578.069 357.875L565.244 383.75H611.144ZM603.791 442.925L656.441 422.675L636.191 359.45L676.691 349.1L681.191 413C681.341 414.2 681.416 415.925 681.416 418.175C681.416 430.025 678.341 440.825 672.191 450.575C666.041 460.475 657.491 468.35 646.541 474.2L620.216 488.15L603.791 442.925ZM717.071 431.675C711.371 432.125 706.046 431.15 701.096 428.75C696.146 426.2 692.171 422.675 689.171 418.175C686.321 413.675 684.896 408.725 684.896 403.325C684.896 400.925 685.046 399.125 685.346 397.925L695.921 341.9C697.271 335 700.271 329.6 704.921 325.7C709.571 321.65 715.046 319.625 721.346 319.625C725.396 319.625 729.221 320.375 732.821 321.875L753.521 330.425C759.371 332.975 763.946 336.725 767.246 341.675C770.696 346.625 772.421 352.325 772.421 358.775V383.75H790.646L792.896 386V428.75L790.646 431H772.421V435.95C772.421 443.45 770.396 450.35 766.346 456.65C762.296 462.95 756.896 467.675 750.146 470.825L700.871 493.325L686.471 447.425L755.096 432.8V428.75L717.071 431.675ZM754.871 383.75V372.05L712.796 362.825L708.746 383.75H754.871ZM789.746 287.45L826.196 278.9V398.825C826.196 407.975 823.121 415.625 816.971 421.775C810.971 427.925 803.321 431 794.021 431H778.271L776.021 428.75V386L778.271 383.75H802.346L789.746 287.45Z" fill="#39281D"/>
<path d="M293.025 144.075L342.075 118.2L342.975 140.25L293.925 166.125L293.025 144.075Z" fill="#39281D"/>
<path d="M35.5 281.925L88.15 261.675L67.9 198.45L108.4 188.1L112.9 252C113.05 253.2 113.125 254.925 113.125 257.175C113.125 269.025 110.05 279.825 103.9 289.575C97.75 299.475 89.2 307.35 78.25 313.2L51.925 327.15L35.5 281.925ZM160.48 270C150.73 270 142.555 266.925 135.955 260.775C129.355 254.625 125.68 246.75 124.93 237.15L115.48 126.45L151.93 117.9V222.75H167.23L169.48 225V267.75L167.23 270H160.48ZM153.678 267.75V225L155.928 222.75H226.578V211.275L157.728 188.325L173.478 131.175L176.853 119.025L223.203 99.45L224.778 117.45L246.153 111.825L249.528 145.8L192.378 155.7L225.228 168.975C231.228 171.375 235.878 175.125 239.178 180.225C242.628 185.325 244.353 191.1 244.353 197.55V231.075C244.353 238.425 242.628 245.1 239.178 251.1C235.878 256.95 231.228 261.6 225.228 265.05C219.378 268.35 212.778 270 205.428 270H155.928L153.678 267.75ZM219.499 281.925L272.149 261.675L251.899 198.45L292.399 188.1L296.899 252C297.049 253.2 297.124 254.925 297.124 257.175C297.124 269.025 294.049 279.825 287.899 289.575C281.749 299.475 273.199 307.35 262.249 313.2L235.924 327.15L219.499 281.925ZM331.654 270.675C330.754 270.825 329.554 270.9 328.054 270.9C322.954 270.9 318.154 269.625 313.654 267.075C309.304 264.375 305.854 260.85 303.304 256.5C300.754 252.15 299.479 247.425 299.479 242.325C299.479 239.925 299.629 238.125 299.929 236.925L310.504 180.9C311.854 174 314.854 168.6 319.504 164.7C324.154 160.65 329.629 158.625 335.929 158.625C339.979 158.625 343.804 159.375 347.404 160.875L368.104 169.425C373.954 171.975 378.529 175.725 381.829 180.675C385.279 185.625 387.004 191.325 387.004 197.775V274.95C387.004 282.45 384.979 289.35 380.929 295.65C376.879 301.95 371.479 306.675 364.729 309.825L315.454 332.325L301.054 286.425L369.679 269.55V265.95L331.654 270.675ZM369.454 222.75V211.05L327.379 201.825L323.329 222.75H369.454ZM432.071 270C422.021 270 413.846 266.925 407.546 260.775C401.246 254.475 398.096 246.675 398.096 237.375C398.096 233.925 398.546 230.55 399.446 227.25L408.896 191.925L394.946 187.65L413.171 139.275L459.521 159.75C468.371 163.65 475.346 169.5 480.446 177.3C485.546 185.1 488.096 193.875 488.096 203.625V238.05C488.096 243.9 486.671 249.3 483.821 254.25C480.971 259.05 477.071 262.875 472.121 265.725C467.171 268.575 461.846 270 456.146 270H432.071ZM470.321 222.75V210.6L426.671 197.325L422.396 222.75H470.321ZM523.59 270.675C517.89 271.125 512.565 270.15 507.615 267.75C502.665 265.2 498.69 261.675 495.69 257.175C492.84 252.675 491.415 247.725 491.415 242.325C491.415 239.925 491.565 238.125 491.865 236.925L502.44 180.9C503.79 174 506.79 168.6 511.44 164.7C516.09 160.65 521.565 158.625 527.865 158.625C531.915 158.625 535.74 159.375 539.34 160.875L560.04 169.425C565.89 171.975 570.465 175.725 573.765 180.675C577.215 185.625 578.94 191.325 578.94 197.775V222.75H597.165L599.415 225V267.75L597.165 270H578.94V274.95C578.94 282.45 576.915 289.35 572.865 295.65C568.815 301.95 563.415 306.675 556.665 309.825L507.39 332.325L492.99 286.425L561.615 271.8V267.75L523.59 270.675ZM561.39 222.75V211.05L519.315 201.825L515.265 222.75H561.39ZM619.89 262.8V267.975L682.665 284.175L691.89 244.35C693.54 237.75 696.765 232.5 701.565 228.6C706.515 224.7 712.29 222.75 718.89 222.75H724.965L727.215 225V267.75L724.965 270H708.765L701.34 288.9L716.865 292.95L699.09 333.675L623.04 304.2C616.89 301.8 611.94 297.9 608.19 292.5C604.44 287.1 602.565 281.1 602.565 274.5V270H584.79L582.54 267.75V225L584.79 222.75H602.565V193.275C602.565 189.075 603.69 185.25 605.94 181.8C608.34 178.2 611.49 175.575 615.39 173.925L646.215 160.65C649.965 159 653.565 158.175 657.015 158.175C663.465 158.175 668.865 160.5 673.215 165.15C677.565 169.65 679.74 175.5 679.74 182.7V270.225L619.89 262.8ZM662.19 224.325V203.85L620.115 213.075V224.325H662.19ZM744.551 216.675C743.801 216.825 742.601 216.9 740.951 216.9C733.151 216.9 726.626 214.35 721.376 209.25C716.276 204.15 713.726 197.7 713.726 189.9C713.726 187.2 713.876 185.175 714.176 183.825L721.601 143.1C722.651 136.95 725.351 132 729.701 128.25C734.051 124.5 739.151 122.625 745.001 122.625C748.601 122.625 752.126 123.375 755.576 124.875L777.401 134.1C781.601 135.9 784.901 138.675 787.301 142.425C789.851 146.175 791.126 150.375 791.126 155.025V231.75C791.126 238.65 789.401 245.025 785.951 250.875C782.501 256.725 777.851 261.375 772.001 264.825C766.151 268.275 759.776 270 752.876 270H713.726L711.476 267.75V225L713.726 222.75H773.801V213.525L744.551 216.675ZM773.576 179.1V168.975L736.226 160.65L732.851 179.1H773.576ZM728.576 87.525H778.526V113.625H728.576V87.525Z" fill="#39281D"/>
</svg>
